<svg width="68" height="36" viewBox="0 0 68 36" fill="none" xmlns="http://www.w3.org/2000/svg">
<path d="M0.414917 34.7593V1.24121H9.51455V14.3342H21.5601V1.24121H30.6597V34.7593H21.5601V21.6663H9.51455V34.7593H0.414917Z" fill="#EE8A9B"/>
<path d="M67.2612 18.0005C67.2612 21.732 66.5356 24.8798 65.0845 27.4438C63.6334 29.9969 61.6749 31.9336 59.209 33.2538C56.7432 34.5631 53.9936 35.2178 50.9604 35.2178C47.9054 35.2178 45.145 34.5577 42.6791 33.2375C40.2242 31.9063 38.2711 29.9642 36.82 27.4111C35.3798 24.847 34.6597 21.7102 34.6597 18.0005C34.6597 14.269 35.3798 11.1267 36.82 8.57353C38.2711 6.00949 40.2242 4.07282 42.6791 2.76352C45.145 1.44331 47.9054 0.783203 50.9604 0.783203C53.9936 0.783203 56.7432 1.44331 59.209 2.76352C61.6749 4.07282 63.6334 6.00949 65.0845 8.57353C66.5356 11.1267 67.2612 14.269 67.2612 18.0005ZM57.8997 18.0005C57.8997 15.9929 57.6324 14.3017 57.0978 12.927C56.5741 11.5413 55.7939 10.4938 54.7574 9.78464C53.7318 9.06452 52.4661 8.70446 50.9604 8.70446C49.4547 8.70446 48.1836 9.06452 47.1471 9.78464C46.1215 10.4938 45.3414 11.5413 44.8067 12.927C44.283 14.3017 44.0212 15.9929 44.0212 18.0005C44.0212 20.0081 44.283 21.7047 44.8067 23.0904C45.3414 24.4652 46.1215 25.5126 47.1471 26.2327C48.1836 26.9419 49.4547 27.2965 50.9604 27.2965C52.4661 27.2965 53.7318 26.9419 54.7574 26.2327C55.7939 25.5126 56.5741 24.4652 57.0978 23.0904C57.6324 21.7047 57.8997 20.0081 57.8997 18.0005Z" fill="#EE8A9B"/>
</svg>
